<svg width="338" height="88" viewBox="0 0 338 88" fill="none" xmlns="http://www.w3.org/2000/svg">
<path d="M315.33 73.5567V30.6328H321.985V38.5355H322.401C323.177 36.4835 324.564 34.6535 326.56 33.0452C328.557 31.4369 331.302 30.6328 334.796 30.6328H337.374V37.2877H333.465C329.86 37.2877 327.032 37.9809 324.98 39.3673C322.983 40.6983 321.985 42.3897 321.985 44.4417V73.5567H315.33Z" fill="black"/>
<path d="M285.813 74.5571C282.874 74.5571 280.212 74.0302 277.827 72.9765C275.498 71.9229 273.474 70.4255 271.754 68.4845C270.091 66.488 268.787 64.1311 267.845 61.4137C266.957 58.6408 266.514 55.5352 266.514 52.0969C266.514 48.714 266.957 45.6361 267.845 42.8633C268.787 40.0904 270.091 37.7335 271.754 35.7925C273.474 33.796 275.498 32.2709 277.827 31.2172C280.212 30.1636 282.874 29.6367 285.813 29.6367C288.697 29.6367 291.275 30.1636 293.549 31.2172C295.823 32.2709 297.764 33.7406 299.372 35.6261C300.98 37.4562 302.2 39.6467 303.032 42.1978C303.92 44.7488 304.363 47.5494 304.363 50.5995V53.7606H273.501V55.7571C273.501 57.5872 273.779 59.3063 274.333 60.9146C274.943 62.4674 275.775 63.8261 276.829 64.9907C277.938 66.1553 279.269 67.0703 280.822 67.7358C282.43 68.4013 284.232 68.7341 286.229 68.7341C288.946 68.7341 291.303 68.0963 293.3 66.8208C295.351 65.5453 296.932 63.7152 298.041 61.3305L302.783 64.7411C301.396 67.6804 299.233 70.065 296.294 71.8951C293.355 73.6698 289.861 74.5571 285.813 74.5571ZM285.813 35.2102C283.983 35.2102 282.319 35.5429 280.822 36.2084C279.324 36.8184 278.021 37.7057 276.912 38.8703C275.858 40.0349 275.026 41.4214 274.416 43.0296C273.806 44.5824 273.501 46.3016 273.501 48.1872V48.7695H297.209V47.8544C297.209 44.0279 296.156 40.9777 294.048 38.704C291.996 36.3748 289.251 35.2102 285.813 35.2102Z" fill="black"/>
<path d="M221.422 12H228.077V37.6212H228.409C229.519 34.9038 231.127 32.9074 233.234 31.6319C235.397 30.3009 237.976 29.6354 240.971 29.6354C243.632 29.6354 246.045 30.1622 248.208 31.2159C250.371 32.2696 252.201 33.767 253.698 35.708C255.251 37.649 256.415 40.0059 257.192 42.7788C258.024 45.5516 258.44 48.6572 258.44 52.0956C258.44 55.5339 258.024 58.6395 257.192 61.4124C256.415 64.1853 255.251 66.5422 253.698 68.4832C252.201 70.4242 250.371 71.9215 248.208 72.9752C246.045 74.0289 243.632 74.5557 240.971 74.5557C235.148 74.5557 230.961 71.8938 228.409 66.5699H228.077V73.5575H221.422V12ZM239.14 68.5664C242.912 68.5664 245.879 67.4018 248.041 65.0726C250.204 62.6879 251.286 59.5823 251.286 55.7557V48.4354C251.286 44.6088 250.204 41.531 248.041 39.2018C245.879 36.8171 242.912 35.6248 239.14 35.6248C237.643 35.6248 236.201 35.8466 234.815 36.2903C233.484 36.6785 232.319 37.233 231.321 37.954C230.323 38.6749 229.519 39.5622 228.909 40.6159C228.354 41.6142 228.077 42.6956 228.077 43.8602V59.8319C228.077 61.2183 228.354 62.4661 228.909 63.5752C229.519 64.6289 230.323 65.544 231.321 66.3204C232.319 67.0413 233.484 67.5959 234.815 67.9841C236.201 68.3723 237.643 68.5664 239.14 68.5664Z" fill="black"/>
<path d="M200.596 66.5691H200.263C199.819 67.5673 199.265 68.5656 198.599 69.5638C197.989 70.5066 197.213 71.3662 196.27 72.1426C195.327 72.8635 194.19 73.4458 192.859 73.8895C191.528 74.3331 189.976 74.5549 188.201 74.5549C183.764 74.5549 180.243 73.1408 177.636 70.3125C175.03 67.4287 173.727 63.3803 173.727 58.1673V30.6328H180.381V57.0027C180.381 64.7113 183.653 68.5656 190.197 68.5656C191.528 68.5656 192.804 68.3992 194.024 68.0664C195.299 67.7337 196.409 67.2346 197.351 66.5691C198.35 65.9036 199.126 65.0718 199.681 64.0735C200.291 63.0198 200.596 61.772 200.596 60.3302V30.6328H207.25V73.5567H200.596V66.5691Z" fill="black"/>
<path d="M150.434 87.2005H141.865C139.536 87.2005 137.789 86.535 136.625 85.2041C135.46 83.9285 134.878 82.3203 134.878 80.3793V74.4731C131.55 74.1403 128.528 73.253 125.811 71.8111C123.093 70.3693 120.792 68.4005 118.906 65.9049C117.021 63.3539 115.551 60.3038 114.497 56.7545C113.499 53.1498 113 49.0737 113 44.5262C113 39.6459 113.582 35.348 114.747 31.6324C115.912 27.9167 117.547 24.7834 119.655 22.2324C121.818 19.6813 124.396 17.7681 127.391 16.4926C130.441 15.1616 133.852 14.4961 137.623 14.4961C141.339 14.4961 144.722 15.1616 147.772 16.4926C150.822 17.7681 153.401 19.6813 155.508 22.2324C157.671 24.7834 159.335 27.9167 160.499 31.6324C161.664 35.348 162.246 39.6459 162.246 44.5262C162.246 53.4548 160.388 60.4424 156.673 65.489C152.957 70.4802 147.91 73.4194 141.533 74.3067V81.3775H150.434V87.2005ZM137.623 68.3173C140.119 68.3173 142.42 67.8737 144.527 66.9864C146.635 66.099 148.437 64.8235 149.935 63.1598C151.487 61.4961 152.68 59.4996 153.512 57.1704C154.343 54.8412 154.759 52.2347 154.759 49.351V39.7014C154.759 36.8176 154.343 34.2111 153.512 31.8819C152.68 29.5527 151.487 27.5563 149.935 25.8926C148.437 24.2288 146.635 22.9533 144.527 22.066C142.42 21.1787 140.119 20.735 137.623 20.735C135.127 20.735 132.826 21.1787 130.719 22.066C128.611 22.9533 126.781 24.2288 125.228 25.8926C123.731 27.5563 122.566 29.5527 121.735 31.8819C120.903 34.2111 120.487 36.8176 120.487 39.7014V49.351C120.487 52.2347 120.903 54.8412 121.735 57.1704C122.566 59.4996 123.731 61.4961 125.228 63.1598C126.781 64.8235 128.611 66.099 130.719 66.9864C132.826 67.8737 135.127 68.3173 137.623 68.3173Z" fill="black"/>
<rect x="1.5" y="1.5" width="42" height="42" fill="#F48024" stroke="#080603" stroke-width="3"/>
<rect x="1.5" y="43.5" width="42" height="42" stroke="#080603" stroke-width="3"/>
<rect x="43.5" y="43.5" width="42" height="42" fill="#F48024" stroke="#080603" stroke-width="3"/>
</svg>
